<svg width="64" height="57" viewBox="0 0 64 57" fill="none" xmlns="http://www.w3.org/2000/svg">
<path d="M32 0H45.0504C46.8703 0 48.5464 0.988767 49.4267 2.58157L62.642 26.4951C63.4854 28.0212 63.4728 29.8765 62.6088 31.391L49.439 54.4775C48.5492 56.0372 46.8915 57 45.0959 57H32L46.6088 31.391C47.4728 29.8765 47.4854 28.0212 46.642 26.4951L32 0Z" fill="#FBC02D"/>
<path d="M32 0H16L1.35798 26.4951C0.51459 28.0212 0.527162 29.8765 1.39115 31.391L16 57H32L17.3912 31.391C16.5272 29.8765 16.5146 28.0212 17.358 26.4951L32 0Z" fill="#FFEB3B"/>
<path d="M16 0H32L46.642 26.4951C47.4854 28.0212 47.4728 29.8765 46.6088 31.391L32 57H16L30.6088 31.391C31.4728 29.8765 31.4854 28.0212 30.642 26.4951L16 0Z" fill="#FDD835"/>
</svg>
